<svg xmlns="http://www.w3.org/2000/svg" version="1.1" viewBox="45 165 1492 1393">

<path transform="translate(1059,165)" d="m0 0h24l25 4 5 1 17 2 13 3 10 2 28 7 17 5 12 4 22 9 16 7 18 10 23 13 27 16 23 15 15 10 17 12 21 16 18 14 15 13 11 10 8 7 31 31 8 10 11 13 13 18 14 22 10 19 5 17 1 5v17l-4 16-4 10-12 21-11 22-11 23-15 27-24 38-8 11-1 2h-2l-2 4-6 9-11 13-7 9-11 13-13 14-7 8-16 16h-2v2l-8 7-7 7-14 11-12 10-12 9-18 13-9 6-10 6-18 10-23 12-27 12-34 12-37 10-43 7-10 2h25l36-3 28-6 17-5-1 5-10 23-12 27-12 22-10 17-12 18-11 15-8 10-9 11-12 14-14 14-9 7-12 10-28 19-16 12-10 8-16 13-10 9-11 9-17 16-10 9-15 14-20 20-1 2h-2l-2 4-10 10-7 8-10 11-1 2h-2l-2 4-9 11-12 14-8 11-10 13-16 24-9 14-14 24-14 27-8 18-8 21-7 19v5l8-16 12-23 13-23 12-21 15-26 13-20 14-22 14-19 9-10h2l-2 28 5 2 11 12 13 18 10 18 5 11 7 18 6 28 2 16v36l-3 24-5 24-3 3-26 10-11 4-24 8-31 9-10 3-35 8-35 7-42 6-29 3-21 1h-69l-26-1v3h-2v-3l-20-3-21-3-27-5-32-7-29-8-2-2 13-16 20-26 26-34 8-10 11-14 20-26 11-14 15-20 12-15 13-17 11-14 10-13 42-54 10-13 22-28 10-13 13-17 7-9 6-8 10-13 8-10 13-17 11-14 20-26 7-9 10-13 10-12 18-24 12-15 9-12 10-13 9-11 12-16 9-11 10-13 8-10 30-39 7-9 13-17 14-18 9-11 10-13 13-17 12-15 1-2-69 2-38 2-62 1 1-4 8-8 9-11 12-14 9-11 13-15 7-8 14-17 12-14 8-10 13-15 9-11 13-15 8-10 9-10 9-11 12-14 11-14 9-10h20l24 2 36 8 6 1 4-5 14-11 10-7 17-10 15-8 21-8 26-6 18-2h22l3 3 8 14 5 5v2h2v2l4 2 11 7 16 5 5 1h28l16-3 19-5 21-8 14-7 1-3-2-3-8 2-25 10-21 6-11 2-11 1h-17l-12-3-12-6-9-7-7-6-13-17-8-13-13-24-14-24-15-27-9-15-9-16-13-23-28-48-5-5-16-10-5-2v-2l-7-1-10 6-16 8-15 6-16 4h-24l-12-4-13-5-19-5-18-9 3 7 8 6 8 4 6 2 16 2-1 4-15 9-15 12-9 5-10 3-12 1-10-2-16-15-13-13-11-9-10-9-15-10-6-5-3-6v-74l3-9 8-11 9-7 12-5 20-4 21-3 30-5 49-7 30-3z" fill="#121A26" data-index="1" style="visibility: visible; opacity: 1;"/>
<path transform="translate(649,323)" d="m0 0h35l26 4 26 8 16 8 13 8 11 9 6 5 7 8 10 14 8 16 6 19 2 10v31l-4 16-7 26-1 5v10l4 16 5 15 10 20-1 5-13 19-12 17-10 14-11 16-10 14-12 17-8 12-7 10-24 34-13 19-14 19-7 11-13 18-13 19-10 14-13 18-13 19-15 22-12 17-5 7-1 3 9-3 34-6 44-8 30-5 32-6 38-6 7-1-6 12-14 24-8 14-16 27-10 17-9 15-15 26-13 21-8 15-8 13-17 29-14 24-11 19-9 15-10 17-16 27-28 48-13 22-17 29-14 24-15 26-12 20-10 17-14 24-16 27-10 17-8 14-1-4 7-25 10-38 6-15 8-22 3-25 5-59-1-9-6-13-10-30-5-20-3-23-1-66-5-5-13-12-7-8-10-12-8-13-7-15-4-13-3-16v-10l1-7-3 3-5 15v13l5 19 8 16 8 14v2l-36 12-34 9-15 3-24 3h-30l-21-3-15-5-12-6-20 6-18 6-26 6-26 5-18 3h-7l-10-10-13-18-10-18-6-13-8-22-6-22-5-29-1-8-1-30 1-22 5-32 7-28 12-39 9-27 10-35 6-27 5-35 2-22 1-19 1-3v-25l-2-10v-11l2-5 5-5 9-7 13-8 12-9 18-14 8-7 22-22 7-8 10-12 9-12 7-10 6-10 5-3 6-1 12 5 16 8 22 14 10 9 7 8 4 10 1 4 2 32v12l-2 24-5 19-6 12-9 10-10 5-9 2-2 6-7 10-7 7-10 6-6 2-12 1-14-2-21-10-4-2-1 22v30l2 26 4 22 4 14 7 20 8 24 3 13 4 23 2 27-9 15-11 21-8 20-5 21-1 21h2l2-12 5-23 8-18 9-17 12-16 13-13 12-9 16-8 21-6 30-5 9-1h41l17 3 4 2-1 11-1 13v14l2 14 5 13 6 9 9 8 7 3 11 1h2l-4-4-7-4-8-11-5-10-4-16-1-7v-23l3-15 7-17 11-18 9-10 6-7 8-7 11-9 14-9 23-12 25-9 26-7 16-3 27-3 7-2 9-7 9-10 8-13 5-11 5-16v-7l-3-6-7-8-11-8-16-8-6 1-32 11-11 4-29 10-10 3-4 2h-9l-10-3-9-8-4-8-4-17-1-16 3-26 5-18v-7l-5-5-13-12-3-6v-7l3-8 8-5 5-3 9-15 8-15 3-4v-8l-5-13-8-19-1-13 3-10 7-12 15-22 10-12 7-9 9-9 11-9 13-10 24-16 19-11 21-8 20-5z" fill="#791218" data-index="2" style="visibility: visible; opacity: 1;"/>
<path transform="translate(443,1450)" d="m0 0 1 2-6 11-1-4 2-7z" fill="#5A141C" data-index="3" style="visibility: visible;"/>

<path transform="translate(100,1510)" d="m0 0h3l-2 6-1 2-5-2v-2l3-1z" fill="#66131A" data-index="5" style="visibility: hidden; opacity: 1;"/>
</svg>